name C:\Users\u0101727\Documents\MyRepositories\upper-imu-dc\Results\main_tracking\Case_31\kinematics.mot
datacolumns 10
datarows 42
range 2.00000000 2.41000000
endheader 
time	clav_prot	clav_elev	scapula_abduction	scapula_elevation	scapula_upward_rot	scapula_winging	plane_elv	shoulder_elv	axial_rot	
          2.00000000	        -31.05588331	          9.13872511	         -0.15810644	         -1.69793070	         54.87726158	         -7.38090438	         66.99748206	         72.51186721	        -19.79150916	
          2.01000000	        -31.26113365	          9.27892881	         -0.22688920	         -1.63475956	         55.27392179	         -7.49134451	         66.72463835	         72.82940236	        -19.98227145	
          2.02000000	        -31.46153170	          9.41423428	         -0.29067455	         -1.57353095	         55.66421138	         -7.59889576	         66.45447847	         73.14112227	        -20.08255393	
          2.03000000	        -31.65814641	          9.54533059	         -0.35239386	         -1.51384504	         56.04719305	         -7.70392034	         66.19281094	         73.44785421	        -20.06760179	
          2.04000000	        -31.85194560	          9.67289974	         -0.41485786	         -1.45530821	         56.42186071	         -7.80678340	         65.94392128	         73.75098051	        -19.93057955	
          2.05000000	        -32.04344564	          9.79732698	         -0.47989746	         -1.39771084	         56.78731115	         -7.90769901	         65.70966217	         74.05214544	        -19.68370511	
          2.06000000	        -32.23255237	          9.91845778	         -0.54781856	         -1.34118550	         57.14295882	         -8.00663241	         65.48925689	         74.35287557	        -19.35437230	
          2.07000000	        -32.41864654	         10.03550377	         -0.61734582	         -1.28627777	         57.48873857	         -8.10329858	         65.27986108	         74.65420899	        -18.97757472	
          2.08000000	        -32.60085080	         10.14712302	         -0.68602418	         -1.23390698	         57.82521354	         -8.19724723	         65.07759594	         74.95645764	        -18.58757954	
          2.09000000	        -32.77834105	         10.25162255	         -0.75087905	         -1.18524254	         58.15352033	         -8.28798515	         64.87858910	         75.25921571	        -18.21219435	
          2.10000000	        -32.95058305	         10.34720955	         -0.80910426	         -1.14153957	         58.47514919	         -8.37508614	         64.67964757	         75.56164958	        -17.87173846	
          2.11000000	        -33.11745488	         10.43223768	         -0.85861520	         -1.10397123	         58.79164779	         -8.45826782	         64.47847358	         75.86295431	        -17.58207893	
          2.12000000	        -33.27928759	         10.50545033	         -0.89839660	         -1.07346242	         59.10439731	         -8.53744833	         64.27362769	         76.16271703	        -17.35813964	
          2.13000000	        -33.43686922	         10.56623647	         -0.92863622	         -1.05051830	         59.41456782	         -8.61280068	         64.06452220	         76.46094863	        -17.21381750	
          2.14000000	        -33.59141857	         10.61486154	         -0.95065268	         -1.03507084	         59.72324033	         -8.68479703	         63.85154779	         76.75775432	        -17.15710320	
          2.15000000	        -33.74449524	         10.65258533	         -0.96661118	         -1.02639686	         60.03159829	         -8.75421077	         63.63619325	         77.05282267	        -17.18278064	
          2.16000000	        -33.89781762	         10.68159866	         -0.97904129	         -1.02314947	         60.34108856	         -8.82205023	         63.42093223	         77.34498540	        -17.26673654	
          2.17000000	        -34.05301009	         10.70478423	         -0.99026948	         -1.02349967	         60.65346795	         -8.88942856	         63.20875922	         77.63207791	        -17.36549489	
          2.18000000	        -34.21135009	         10.72536726	         -1.00196918	         -1.02535020	         60.97067169	         -8.95740482	         63.00244095	         77.91123529	        -17.42274685	
          2.19000000	        -34.37359530	         10.74653032	         -1.01498568	         -1.02657949	         61.29451367	         -9.02684066	         62.80369802	         78.17956022	        -17.38158815	
          2.20000000	        -34.53993250	         10.77104639	         -1.02943683	         -1.02528537	         61.62632380	         -9.09830325	         62.61259688	         78.43489815	        -17.19801839	
          2.21000000	        -34.71003568	         10.80096597	         -1.04496713	         -1.02000509	         61.96665156	         -9.17202181	         62.42737381	         78.67643348	        -16.85050989	
          2.22000000	        -34.88318820	         10.83739100	         -1.06102890	         -1.00988502	         62.31510304	         -9.24789007	         62.24473399	         78.90498309	        -16.34300147	
          2.23000000	        -35.05843548	         10.88038766	         -1.07713566	         -0.99476060	         62.67032600	         -9.32551259	         62.06048882	         79.12300739	        -15.70209081	
          2.24000000	        -35.23474616	         10.92909159	         -1.09308271	         -0.97510644	         63.03012359	         -9.40429555	         61.87030815	         79.33441366	        -14.97094401	
          2.25000000	        -35.41115603	         10.98200985	         -1.10911590	         -0.95184995	         63.39166752	         -9.48357051	         61.67036686	         79.54420800	        -14.20233294	
          2.26000000	        -35.58687257	         11.03743913	         -1.12598179	         -0.92609988	         63.75181301	         -9.56272314	         61.45772300	         79.75799001	        -13.45226236	
          2.27000000	        -35.76130909	         11.09386487	         -1.14481281	         -0.89887807	         64.10745509	         -9.64128484	         61.23037912	         79.98134783	        -12.77476480	
          2.28000000	        -35.93404417	         11.15022274	         -1.16686814	         -0.87093451	         64.45584852	         -9.71896077	         60.98709736	         80.21924794	        -12.21793201	
          2.29000000	        -36.10473647	         11.20597537	         -1.19321735	         -0.84268120	         64.79483354	         -9.79559864	         60.72711025	         80.47551307	        -11.82104602	
          2.30000000	        -36.27303790	         11.26102933	         -1.22446447	         -0.81423297	         65.12295073	         -9.87112360	         60.44986765	         80.75244506	        -11.61256536	
          2.31000000	        -36.43854019	         11.31555310	         -1.26057671	         -0.78551852	         65.43946464	         -9.94546855	         60.15491891	         81.05060030	        -11.60857637	
          2.32000000	        -36.60077879	         11.36975787	         -1.30085014	         -0.75642241	         65.74433005	        -10.01852466	         59.84199128	         81.36869606	        -11.81124521	
          2.33000000	        -36.75931109	         11.42369480	         -1.34403681	         -0.72692341	         66.03812702	        -10.09013190	         59.51129344	         81.70363077	        -12.20702217	
          2.34000000	        -36.91387536	         11.47712115	         -1.38865311	         -0.69719472	         66.32197290	        -10.16012435	         59.16401929	         82.05062963	        -12.76489434	
          2.35000000	        -37.06460852	         11.52948307	         -1.43345251	         -0.66763246	         66.59740430	        -10.22843168	         58.80293208	         82.40355037	        -13.43566337	
          2.36000000	        -37.21225382	         11.58002947	         -1.47795833	         -0.63879748	         66.86621597	        -10.29520845	         58.43279275	         82.75537916	        -14.15369858	
          2.37000000	        -37.35824658	         11.62800624	         -1.52285475	         -0.61129640	         67.13024723	        -10.36092954	         58.06033210	         83.09890735	        -14.84251183	
          2.38000000	        -37.50457785	         11.67282883	         -1.57002391	         -0.58566222	         67.39112255	        -10.42638199	         57.69355605	         83.42751876	        -15.42454165	
          2.39000000	        -37.65342157	         11.71414378	         -1.62213666	         -0.56229238	         67.64999330	        -10.49252332	         57.34044430	         83.73594004	        -15.83358824	
          2.40000000	        -37.80663379	         11.75176675	         -1.68189798	         -0.54145803	         67.90737906	        -10.56024536	         57.00742899	         84.02074872	        -16.02618910	
          2.41000000	        -37.96530931	         11.78556483	         -1.75121507	         -0.52334984	         68.16319853	        -10.63013593	         56.69819140	         84.28049301	        -15.98793596	
